G04 #@! TF.GenerationSoftware,KiCad,Pcbnew,9.0.6*
G04 #@! TF.CreationDate,2025-12-02T18:56:31+01:00*
G04 #@! TF.ProjectId,stencil,7374656e-6369-46c2-9e6b-696361645f70,1*
G04 #@! TF.SameCoordinates,Original*
G04 #@! TF.FileFunction,Paste,Top*
G04 #@! TF.FilePolarity,Positive*
%FSLAX46Y46*%
G04 Gerber Fmt 4.6, Leading zero omitted, Abs format (unit mm)*
G04 Created by KiCad (PCBNEW 9.0.6) date 2025-12-02 18:56:31*
%MOMM*%
%LPD*%
G01*
G04 APERTURE LIST*
G04 Aperture macros list*
%AMRoundRect*
0 Rectangle with rounded corners*
0 $1 Rounding radius*
0 $2 $3 $4 $5 $6 $7 $8 $9 X,Y pos of 4 corners*
0 Add a 4 corners polygon primitive as box body*
4,1,4,$2,$3,$4,$5,$6,$7,$8,$9,$2,$3,0*
0 Add four circle primitives for the rounded corners*
1,1,$1+$1,$2,$3*
1,1,$1+$1,$4,$5*
1,1,$1+$1,$6,$7*
1,1,$1+$1,$8,$9*
0 Add four rect primitives between the rounded corners*
20,1,$1+$1,$2,$3,$4,$5,0*
20,1,$1+$1,$4,$5,$6,$7,0*
20,1,$1+$1,$6,$7,$8,$9,0*
20,1,$1+$1,$8,$9,$2,$3,0*%
%AMFreePoly0*
4,1,21,-0.300000,0.050000,-0.296194,0.069134,-0.285355,0.085355,-0.269134,0.096194,-0.250000,0.100000,0.250000,0.100000,0.269134,0.096194,0.285355,0.085355,0.296194,0.069134,0.300000,0.050000,0.300000,-0.050000,0.296194,-0.069134,0.285355,-0.085355,0.269134,-0.096194,0.250000,-0.100000,-0.250000,-0.100000,-0.269134,-0.096194,-0.285355,-0.085355,-0.296194,-0.069134,-0.300000,-0.050000,
-0.300000,0.050000,-0.300000,0.050000,$1*%
G04 Aperture macros list end*
%ADD10C,0.500000*%
%ADD11C,1.000000*%
%ADD12C,1.050000*%
%ADD13C,0.010000*%
%ADD14RoundRect,0.250000X0.450000X-0.262500X0.450000X0.262500X-0.450000X0.262500X-0.450000X-0.262500X0*%
%ADD15RoundRect,0.250000X0.650000X-1.000000X0.650000X1.000000X-0.650000X1.000000X-0.650000X-1.000000X0*%
%ADD16RoundRect,0.200000X-0.275000X0.200000X-0.275000X-0.200000X0.275000X-0.200000X0.275000X0.200000X0*%
%ADD17R,2.420000X1.280000*%
%ADD18R,0.900000X1.500000*%
%ADD19R,0.700000X0.700000*%
%ADD20R,1.500000X0.700000*%
%ADD21R,0.800000X1.000000*%
%ADD22RoundRect,0.200000X-0.200000X-0.275000X0.200000X-0.275000X0.200000X0.275000X-0.200000X0.275000X0*%
%ADD23RoundRect,0.250000X-0.262500X-0.450000X0.262500X-0.450000X0.262500X0.450000X-0.262500X0.450000X0*%
%ADD24R,0.550000X0.400000*%
%ADD25RoundRect,0.250000X-0.250000X-0.475000X0.250000X-0.475000X0.250000X0.475000X-0.250000X0.475000X0*%
%ADD26RoundRect,0.150000X0.150000X0.625000X-0.150000X0.625000X-0.150000X-0.625000X0.150000X-0.625000X0*%
%ADD27RoundRect,0.250000X0.350000X0.650000X-0.350000X0.650000X-0.350000X-0.650000X0.350000X-0.650000X0*%
%ADD28RoundRect,0.043750X-0.151250X-0.131250X0.151250X-0.131250X0.151250X0.131250X-0.151250X0.131250X0*%
%ADD29RoundRect,0.043750X-0.131250X-0.151250X0.131250X-0.151250X0.131250X0.151250X-0.131250X0.151250X0*%
%ADD30RoundRect,0.250000X-0.475000X0.250000X-0.475000X-0.250000X0.475000X-0.250000X0.475000X0.250000X0*%
%ADD31RoundRect,0.200000X0.200000X0.275000X-0.200000X0.275000X-0.200000X-0.275000X0.200000X-0.275000X0*%
%ADD32RoundRect,0.150000X-0.150000X-0.625000X0.150000X-0.625000X0.150000X0.625000X-0.150000X0.625000X0*%
%ADD33RoundRect,0.250000X-0.350000X-0.650000X0.350000X-0.650000X0.350000X0.650000X-0.350000X0.650000X0*%
%ADD34RoundRect,0.250000X-1.500000X0.250000X-1.500000X-0.250000X1.500000X-0.250000X1.500000X0.250000X0*%
%ADD35RoundRect,0.250001X-1.449999X0.499999X-1.449999X-0.499999X1.449999X-0.499999X1.449999X0.499999X0*%
%ADD36R,0.800000X0.500000*%
%ADD37RoundRect,0.150000X-0.425000X0.150000X-0.425000X-0.150000X0.425000X-0.150000X0.425000X0.150000X0*%
%ADD38RoundRect,0.075000X-0.500000X0.075000X-0.500000X-0.075000X0.500000X-0.075000X0.500000X0.075000X0*%
%ADD39O,2.100000X1.000000*%
%ADD40O,1.800000X1.000000*%
%ADD41R,1.200000X0.600000*%
%ADD42R,2.400000X3.300000*%
%ADD43RoundRect,0.250000X0.250000X0.475000X-0.250000X0.475000X-0.250000X-0.475000X0.250000X-0.475000X0*%
%ADD44RoundRect,0.075000X0.075000X0.200000X-0.075000X0.200000X-0.075000X-0.200000X0.075000X-0.200000X0*%
%ADD45RoundRect,0.050000X-0.050000X-0.137500X0.050000X-0.137500X0.050000X0.137500X-0.050000X0.137500X0*%
%ADD46RoundRect,0.270000X-0.270000X-0.605000X0.270000X-0.605000X0.270000X0.605000X-0.270000X0.605000X0*%
%ADD47FreePoly0,0.000000*%
%ADD48R,0.850000X0.850000*%
%ADD49RoundRect,0.250000X-0.420000X-0.945000X0.420000X-0.945000X0.420000X0.945000X-0.420000X0.945000X0*%
%ADD50RoundRect,0.250000X0.420000X0.945000X-0.420000X0.945000X-0.420000X-0.945000X0.420000X-0.945000X0*%
%ADD51RoundRect,0.250000X0.475000X-0.250000X0.475000X0.250000X-0.475000X0.250000X-0.475000X-0.250000X0*%
%ADD52RoundRect,0.140000X-0.205000X-0.140000X0.205000X-0.140000X0.205000X0.140000X-0.205000X0.140000X0*%
%ADD53RoundRect,0.062500X-0.337500X-0.062500X0.337500X-0.062500X0.337500X0.062500X-0.337500X0.062500X0*%
%ADD54R,0.500000X0.300000*%
G04 APERTURE END LIST*
D10*
X568750Y-36100000D02*
X568750Y-46500000D01*
X568750Y-48500000D02*
X568750Y-58900000D01*
X1068750Y2600000D02*
G75*
G02*
X568750Y3100000I0J500000D01*
G01*
X88368750Y-109500000D02*
G75*
G02*
X87868800Y-109000000I50J500000D01*
G01*
X38268750Y14000000D02*
G75*
G02*
X38768750Y14500050I500050J0D01*
G01*
X124568750Y-85700000D02*
X124568750Y-96100000D01*
X13968750Y-109500000D02*
G75*
G02*
X13468800Y-109000000I50J500000D01*
G01*
X1068750Y-59400000D02*
G75*
G02*
X568750Y-58900000I0J500000D01*
G01*
X111168750Y14500000D02*
G75*
G02*
X111668700Y14000000I-50J-500000D01*
G01*
X124568750Y1100000D02*
X124568750Y-9300000D01*
X124568750Y3100000D02*
G75*
G02*
X124068750Y2599950I-500050J0D01*
G01*
X124568750Y-71300000D02*
G75*
G02*
X124068750Y-71800050I-500050J0D01*
G01*
X124568750Y-83700000D02*
G75*
G02*
X124068750Y-84200050I-500050J0D01*
G01*
X100768750Y-109500000D02*
X111168750Y-109500000D01*
X1568750Y14500000D02*
X11968750Y14500000D01*
X63568750Y14500000D02*
X73968750Y14500000D01*
X124568750Y-98100000D02*
X124568750Y-108500000D01*
X38768750Y-109500000D02*
G75*
G02*
X38268800Y-109000000I50J500000D01*
G01*
X98768750Y14500000D02*
G75*
G02*
X99268700Y14000000I-50J-500000D01*
G01*
D11*
X121818750Y-47500000D02*
G75*
G02*
X120818750Y-47500000I-500000J0D01*
G01*
X120818750Y-47500000D02*
G75*
G02*
X121818750Y-47500000I500000J0D01*
G01*
D10*
X51168750Y-109500000D02*
X61568750Y-109500000D01*
X568750Y1100000D02*
G75*
G02*
X1068750Y1600000I500000J0D01*
G01*
X63568750Y-109500000D02*
X73968750Y-109500000D01*
X51168750Y-109500000D02*
G75*
G02*
X50668800Y-109000000I50J500000D01*
G01*
X124068750Y-10800000D02*
G75*
G02*
X124568700Y-11300000I-50J-500000D01*
G01*
X568750Y-60900000D02*
X568750Y-71300000D01*
X24368750Y14500000D02*
G75*
G02*
X24868700Y14000000I-50J-500000D01*
G01*
X112668750Y14000000D02*
G75*
G02*
X113168750Y14500050I500050J0D01*
G01*
X1068750Y-9800000D02*
G75*
G02*
X568750Y-9300000I0J500000D01*
G01*
X25868750Y14000000D02*
G75*
G02*
X26368750Y14500050I500050J0D01*
G01*
X75968750Y-109500000D02*
X86368750Y-109500000D01*
D11*
X121818750Y-76875000D02*
G75*
G02*
X120818750Y-76875000I-500000J0D01*
G01*
X120818750Y-76875000D02*
G75*
G02*
X121818750Y-76875000I500000J0D01*
G01*
D10*
X113168750Y14500000D02*
X123568750Y14500000D01*
X49668750Y-109000000D02*
G75*
G02*
X49168750Y-109500050I-500050J0D01*
G01*
X26368750Y14500000D02*
X36768750Y14500000D01*
X124068750Y-60400000D02*
G75*
G02*
X124568700Y-60900000I-50J-500000D01*
G01*
X12468750Y-109000000D02*
G75*
G02*
X11968750Y-109500050I-500050J0D01*
G01*
X74468750Y-109000000D02*
G75*
G02*
X73968750Y-109500050I-500050J0D01*
G01*
X568750Y-36100000D02*
G75*
G02*
X1068750Y-35600000I500000J0D01*
G01*
X124568750Y-9300000D02*
G75*
G02*
X124068750Y-9800050I-500050J0D01*
G01*
X123568750Y14500000D02*
G75*
G02*
X124568800Y13500000I50J-1000000D01*
G01*
X568750Y-23700000D02*
X568750Y-34100000D01*
X86868750Y-109000000D02*
G75*
G02*
X86368750Y-109500050I-500050J0D01*
G01*
X124068750Y-23200000D02*
G75*
G02*
X124568700Y-23700000I-50J-500000D01*
G01*
X86368750Y14500000D02*
G75*
G02*
X86868700Y14000000I-50J-500000D01*
G01*
X75968750Y-109500000D02*
G75*
G02*
X75468800Y-109000000I50J500000D01*
G01*
D12*
X4343750Y-106250000D02*
G75*
G02*
X3293750Y-106250000I-525000J0D01*
G01*
X3293750Y-106250000D02*
G75*
G02*
X4343750Y-106250000I525000J0D01*
G01*
D10*
X124568750Y-58900000D02*
G75*
G02*
X124068750Y-59400050I-500050J0D01*
G01*
X568750Y-73300000D02*
X568750Y-83700000D01*
X75468750Y14000000D02*
G75*
G02*
X75968750Y14500050I500050J0D01*
G01*
X88368750Y-109500000D02*
X98768750Y-109500000D01*
X75968750Y14500000D02*
X86368750Y14500000D01*
X124568750Y-46500000D02*
G75*
G02*
X124068750Y-47000050I-500050J0D01*
G01*
X1568750Y-109500000D02*
G75*
G02*
X568750Y-108500000I0J1000000D01*
G01*
X37268750Y-109000000D02*
G75*
G02*
X36768750Y-109500050I-500050J0D01*
G01*
X100268750Y14000000D02*
G75*
G02*
X100768750Y14500050I500050J0D01*
G01*
X36768750Y14500000D02*
G75*
G02*
X37268700Y14000000I-50J-500000D01*
G01*
X11968750Y14500000D02*
G75*
G02*
X12468700Y14000000I-50J-500000D01*
G01*
D11*
X33693750Y-106250000D02*
G75*
G02*
X32693750Y-106250000I-500000J0D01*
G01*
X32693750Y-106250000D02*
G75*
G02*
X33693750Y-106250000I500000J0D01*
G01*
D10*
X111668750Y-109000000D02*
G75*
G02*
X111168750Y-109500050I-500050J0D01*
G01*
X568750Y-98100000D02*
G75*
G02*
X1068750Y-97600000I500000J0D01*
G01*
D11*
X4318750Y-76875000D02*
G75*
G02*
X3318750Y-76875000I-500000J0D01*
G01*
X3318750Y-76875000D02*
G75*
G02*
X4318750Y-76875000I500000J0D01*
G01*
D10*
X124568750Y-11300000D02*
X124568750Y-21700000D01*
D12*
X121843750Y-106250000D02*
G75*
G02*
X120793750Y-106250000I-525000J0D01*
G01*
X120793750Y-106250000D02*
G75*
G02*
X121843750Y-106250000I525000J0D01*
G01*
D10*
X100768750Y14500000D02*
X111168750Y14500000D01*
D12*
X4343750Y11250000D02*
G75*
G02*
X3293750Y11250000I-525000J0D01*
G01*
X3293750Y11250000D02*
G75*
G02*
X4343750Y11250000I525000J0D01*
G01*
D10*
X113168750Y-109500000D02*
G75*
G02*
X112668800Y-109000000I50J500000D01*
G01*
X568750Y-11300000D02*
X568750Y-21700000D01*
X88368750Y14500000D02*
X98768750Y14500000D01*
D12*
X121843750Y11250000D02*
G75*
G02*
X120793750Y11250000I-525000J0D01*
G01*
X120793750Y11250000D02*
G75*
G02*
X121843750Y11250000I525000J0D01*
G01*
D10*
X100768750Y-109500000D02*
G75*
G02*
X100268800Y-109000000I50J500000D01*
G01*
X124568750Y-21700000D02*
G75*
G02*
X124068750Y-22200050I-500050J0D01*
G01*
X26368750Y-109500000D02*
G75*
G02*
X25868800Y-109000000I50J500000D01*
G01*
X99268750Y-109000000D02*
G75*
G02*
X98768750Y-109500050I-500050J0D01*
G01*
D11*
X92443750Y-106250000D02*
G75*
G02*
X91443750Y-106250000I-500000J0D01*
G01*
X91443750Y-106250000D02*
G75*
G02*
X92443750Y-106250000I500000J0D01*
G01*
D10*
X124568750Y-60900000D02*
X124568750Y-71300000D01*
X568750Y-11300000D02*
G75*
G02*
X1068750Y-10800000I500000J0D01*
G01*
X568750Y-98100000D02*
X568750Y-108500000D01*
X63568750Y-109500000D02*
G75*
G02*
X63068800Y-109000000I50J500000D01*
G01*
X1568750Y-109500000D02*
X11968750Y-109500000D01*
X1068750Y-71800000D02*
G75*
G02*
X568750Y-71300000I0J500000D01*
G01*
X87868750Y14000000D02*
G75*
G02*
X88368750Y14500050I500050J0D01*
G01*
X124568750Y-34100000D02*
G75*
G02*
X124068750Y-34600050I-500050J0D01*
G01*
X124068750Y-48000000D02*
G75*
G02*
X124568700Y-48500000I-50J-500000D01*
G01*
D11*
X63068750Y-106250000D02*
G75*
G02*
X62068750Y-106250000I-500000J0D01*
G01*
X62068750Y-106250000D02*
G75*
G02*
X63068750Y-106250000I500000J0D01*
G01*
D10*
X124568750Y-36100000D02*
X124568750Y-46500000D01*
X1068750Y-47000000D02*
G75*
G02*
X568750Y-46500000I0J500000D01*
G01*
X13468750Y14000000D02*
G75*
G02*
X13968750Y14500050I500050J0D01*
G01*
X1068750Y-22200000D02*
G75*
G02*
X568750Y-21700000I0J500000D01*
G01*
X124068750Y1600000D02*
G75*
G02*
X124568700Y1100000I-50J-500000D01*
G01*
X38768750Y14500000D02*
X49168750Y14500000D01*
D11*
X4318750Y-18125000D02*
G75*
G02*
X3318750Y-18125000I-500000J0D01*
G01*
X3318750Y-18125000D02*
G75*
G02*
X4318750Y-18125000I500000J0D01*
G01*
D10*
X124568750Y-23700000D02*
X124568750Y-34100000D01*
X568750Y13500000D02*
X568750Y3100000D01*
X1068750Y-96600000D02*
G75*
G02*
X568750Y-96100000I0J500000D01*
G01*
X113168750Y-109500000D02*
X123568750Y-109500000D01*
X63068750Y14000000D02*
G75*
G02*
X63568750Y14500050I500050J0D01*
G01*
X568750Y-73300000D02*
G75*
G02*
X1068750Y-72800000I500000J0D01*
G01*
X568750Y1100000D02*
X568750Y-9300000D01*
X568750Y-85700000D02*
X568750Y-96100000D01*
X1068750Y-34600000D02*
G75*
G02*
X568750Y-34100000I0J500000D01*
G01*
D11*
X4318750Y-47500000D02*
G75*
G02*
X3318750Y-47500000I-500000J0D01*
G01*
X3318750Y-47500000D02*
G75*
G02*
X4318750Y-47500000I500000J0D01*
G01*
D10*
X124068750Y-85200000D02*
G75*
G02*
X124568700Y-85700000I-50J-500000D01*
G01*
X73968750Y14500000D02*
G75*
G02*
X74468700Y14000000I-50J-500000D01*
G01*
X124568750Y-96100000D02*
G75*
G02*
X124068750Y-96600050I-500050J0D01*
G01*
X124568750Y-108500000D02*
G75*
G02*
X123568750Y-109499950I-999950J0D01*
G01*
X61568750Y14500000D02*
G75*
G02*
X62068700Y14000000I-50J-500000D01*
G01*
X62068750Y-109000000D02*
G75*
G02*
X61568750Y-109500050I-500050J0D01*
G01*
X124568750Y-48500000D02*
X124568750Y-58900000D01*
D11*
X92443750Y11250000D02*
G75*
G02*
X91443750Y11250000I-500000J0D01*
G01*
X91443750Y11250000D02*
G75*
G02*
X92443750Y11250000I500000J0D01*
G01*
D10*
X124068750Y-72800000D02*
G75*
G02*
X124568700Y-73300000I-50J-500000D01*
G01*
X568750Y-23700000D02*
G75*
G02*
X1068750Y-23200000I500000J0D01*
G01*
X124568750Y-73300000D02*
X124568750Y-83700000D01*
X568750Y13500000D02*
G75*
G02*
X1568750Y14500000I1000000J0D01*
G01*
X1068750Y-84200000D02*
G75*
G02*
X568750Y-83700000I0J500000D01*
G01*
D11*
X33693750Y11250000D02*
G75*
G02*
X32693750Y11250000I-500000J0D01*
G01*
X32693750Y11250000D02*
G75*
G02*
X33693750Y11250000I500000J0D01*
G01*
X63068750Y11250000D02*
G75*
G02*
X62068750Y11250000I-500000J0D01*
G01*
X62068750Y11250000D02*
G75*
G02*
X63068750Y11250000I500000J0D01*
G01*
D10*
X38768750Y-109500000D02*
X49168750Y-109500000D01*
X50668750Y14000000D02*
G75*
G02*
X51168750Y14500050I500050J0D01*
G01*
X124068750Y-35600000D02*
G75*
G02*
X124568700Y-36100000I-50J-500000D01*
G01*
X24868750Y-109000000D02*
G75*
G02*
X24368750Y-109500050I-500050J0D01*
G01*
X568750Y-60900000D02*
G75*
G02*
X1068750Y-60400000I500000J0D01*
G01*
X13968750Y14500000D02*
X24368750Y14500000D01*
X51168750Y14500000D02*
X61568750Y14500000D01*
X124068750Y-97600000D02*
G75*
G02*
X124568700Y-98100000I-50J-500000D01*
G01*
X26368750Y-109500000D02*
X36768750Y-109500000D01*
X13968750Y-109500000D02*
X24368750Y-109500000D01*
X49168750Y14500000D02*
G75*
G02*
X49668700Y14000000I-50J-500000D01*
G01*
D11*
X121818750Y-18125000D02*
G75*
G02*
X120818750Y-18125000I-500000J0D01*
G01*
X120818750Y-18125000D02*
G75*
G02*
X121818750Y-18125000I500000J0D01*
G01*
D10*
X124568750Y13500000D02*
X124568750Y3100000D01*
X568750Y-85700000D02*
G75*
G02*
X1068750Y-85200000I500000J0D01*
G01*
X568750Y-48500000D02*
G75*
G02*
X1068750Y-48000000I500000J0D01*
G01*
D13*
G04 #@! TO.C,U8*
X88162500Y-45626000D02*
X87112500Y-45626000D01*
X87112500Y-44376000D01*
X87362500Y-44126000D01*
X88162500Y-44126000D01*
X88162500Y-45626000D01*
G36*
X88162500Y-45626000D02*
G01*
X87112500Y-45626000D01*
X87112500Y-44376000D01*
X87362500Y-44126000D01*
X88162500Y-44126000D01*
X88162500Y-45626000D01*
G37*
G04 #@! TD*
D14*
G04 #@! TO.C,R13*
X49500000Y-57412500D03*
X49500000Y-55587500D03*
G04 #@! TD*
D15*
G04 #@! TO.C,D1*
X36000000Y-40600000D03*
X36000000Y-36600000D03*
G04 #@! TD*
D16*
G04 #@! TO.C,R3*
X39500000Y-36675000D03*
X39500000Y-38325000D03*
G04 #@! TD*
D17*
G04 #@! TO.C,SW3*
X51300000Y-35000000D03*
X57900000Y-35000000D03*
G04 #@! TD*
D18*
G04 #@! TO.C,U3*
X72675000Y-38750000D03*
X71175000Y-38750000D03*
X69675000Y-38750000D03*
X68175000Y-38750000D03*
X66675000Y-38750000D03*
X65175000Y-38750000D03*
X63675000Y-38750000D03*
X62175000Y-38750000D03*
X60675000Y-38750000D03*
X60675000Y-56250000D03*
X62175000Y-56250000D03*
X63675000Y-56250000D03*
X65175000Y-56250000D03*
X66675000Y-56250000D03*
X68175000Y-56250000D03*
X69675000Y-56250000D03*
X71175000Y-56250000D03*
X72675000Y-56250000D03*
D19*
X67575000Y-47360000D03*
X66475000Y-47360000D03*
X65375000Y-47360000D03*
X67575000Y-48410000D03*
X66475000Y-48410000D03*
X65375000Y-48410000D03*
X67575000Y-49560000D03*
X66475000Y-49560000D03*
X65375000Y-49560000D03*
G04 #@! TD*
D20*
G04 #@! TO.C,SW2*
X33487500Y-58400000D03*
X33487500Y-59400000D03*
X33487500Y-60400000D03*
D21*
X32787500Y-56650000D03*
X30587500Y-56650000D03*
X32787500Y-62150000D03*
X30587500Y-62150000D03*
G04 #@! TD*
D22*
G04 #@! TO.C,R6*
X86812500Y-42376000D03*
X88462500Y-42376000D03*
G04 #@! TD*
D23*
G04 #@! TO.C,R9*
X31487500Y-41200000D03*
X33312500Y-41200000D03*
G04 #@! TD*
D24*
G04 #@! TO.C,U8*
X86487500Y-44076000D03*
X86487500Y-44876000D03*
X86487500Y-45676000D03*
X88787500Y-45676000D03*
X88787500Y-44876000D03*
X88787500Y-44076000D03*
G04 #@! TD*
D25*
G04 #@! TO.C,C12*
X38550000Y-55500000D03*
X40450000Y-55500000D03*
G04 #@! TD*
D26*
G04 #@! TO.C,J4*
X91637500Y-40276000D03*
X90637500Y-40276000D03*
X89637500Y-40276000D03*
X88637500Y-40276000D03*
D27*
X92937500Y-36401000D03*
X87337500Y-36401000D03*
G04 #@! TD*
D28*
G04 #@! TO.C,U9*
X90357500Y-44626000D03*
X90357500Y-45126000D03*
D29*
X90637500Y-45656000D03*
X91137500Y-45656000D03*
X91637500Y-45656000D03*
D28*
X91917500Y-45126000D03*
X91917500Y-44626000D03*
D29*
X91637500Y-44096000D03*
X91137500Y-44096000D03*
X90637500Y-44096000D03*
G04 #@! TD*
D30*
G04 #@! TO.C,C7*
X93637500Y-44926000D03*
X93637500Y-46826000D03*
G04 #@! TD*
D23*
G04 #@! TO.C,R12*
X47087500Y-60000000D03*
X48912500Y-60000000D03*
G04 #@! TD*
G04 #@! TO.C,R10*
X31087500Y-55000000D03*
X32912500Y-55000000D03*
G04 #@! TD*
D31*
G04 #@! TO.C,R7*
X65325000Y-35000000D03*
X63675000Y-35000000D03*
G04 #@! TD*
D30*
G04 #@! TO.C,C1*
X62000000Y-61800000D03*
X62000000Y-63700000D03*
G04 #@! TD*
D32*
G04 #@! TO.C,J3*
X43000000Y-32000000D03*
X44000000Y-32000000D03*
X45000000Y-32000000D03*
X46000000Y-32000000D03*
D33*
X41700000Y-35875000D03*
X47300000Y-35875000D03*
G04 #@! TD*
D30*
G04 #@! TO.C,C5*
X62000000Y-58250000D03*
X62000000Y-60150000D03*
G04 #@! TD*
D31*
G04 #@! TO.C,R8*
X62325000Y-35000000D03*
X60675000Y-35000000D03*
G04 #@! TD*
D34*
G04 #@! TO.C,J2*
X56850000Y-47000000D03*
X56850000Y-49000000D03*
D35*
X51100000Y-44650000D03*
X51100000Y-51350000D03*
G04 #@! TD*
D36*
G04 #@! TO.C,U7*
X87137500Y-53876000D03*
X87137500Y-54876000D03*
X87137500Y-55876000D03*
X89137500Y-55876000D03*
X89137500Y-54876000D03*
X89137500Y-53876000D03*
G04 #@! TD*
D37*
G04 #@! TO.C,J1*
X37380000Y-44300000D03*
X37380000Y-45100000D03*
D38*
X37380000Y-46250000D03*
X37380000Y-47250000D03*
X37380000Y-47750000D03*
X37380000Y-48750000D03*
D37*
X37380000Y-49900000D03*
X37380000Y-50700000D03*
X37380000Y-50700000D03*
X37380000Y-49900000D03*
D38*
X37380000Y-49250000D03*
X37380000Y-48250000D03*
X37380000Y-46750000D03*
X37380000Y-45750000D03*
D37*
X37380000Y-45100000D03*
X37380000Y-44300000D03*
D39*
X36805000Y-43180000D03*
D40*
X32625000Y-43180000D03*
D39*
X36805000Y-51820000D03*
D40*
X32625000Y-51820000D03*
G04 #@! TD*
D25*
G04 #@! TO.C,C9*
X92187500Y-51376000D03*
X94087500Y-51376000D03*
G04 #@! TD*
D14*
G04 #@! TO.C,R1*
X52400000Y-56712500D03*
X52400000Y-54887500D03*
G04 #@! TD*
D41*
G04 #@! TO.C,U2*
X63890000Y-59290000D03*
X63890000Y-60560000D03*
X63890000Y-61840000D03*
X63890000Y-63110000D03*
X69710000Y-63110000D03*
X69710000Y-61840000D03*
X69710000Y-60560000D03*
X69710000Y-59290000D03*
D42*
X66800000Y-61200000D03*
G04 #@! TD*
D43*
G04 #@! TO.C,C11*
X40950000Y-58500000D03*
X39050000Y-58500000D03*
G04 #@! TD*
D44*
G04 #@! TO.C,U4*
X36500000Y-54000000D03*
X36000000Y-54000000D03*
X35500000Y-54000000D03*
X35000000Y-54000000D03*
X34500000Y-54000000D03*
X34500000Y-54770000D03*
X35000000Y-54770000D03*
X35500000Y-54770000D03*
X36000000Y-54770000D03*
X36500000Y-54770000D03*
G04 #@! TD*
D31*
G04 #@! TO.C,R5*
X60225000Y-58200000D03*
X58575000Y-58200000D03*
G04 #@! TD*
D23*
G04 #@! TO.C,R2*
X67087500Y-34500000D03*
X68912500Y-34500000D03*
G04 #@! TD*
D25*
G04 #@! TO.C,C6*
X50550000Y-39000000D03*
X52450000Y-39000000D03*
G04 #@! TD*
D23*
G04 #@! TO.C,R11*
X55000000Y-42500000D03*
X56825000Y-42500000D03*
G04 #@! TD*
D45*
G04 #@! TO.C,U10*
X43500000Y-55500000D03*
X43500000Y-58025000D03*
D46*
X43985000Y-56762500D03*
X45265000Y-56762500D03*
D45*
X45750000Y-55500000D03*
X45750000Y-58025000D03*
D47*
X42725000Y-55762500D03*
X42725000Y-56162500D03*
X42725000Y-56562500D03*
X42725000Y-56962500D03*
X42725000Y-57362500D03*
X42725000Y-57762500D03*
X46525000Y-57762500D03*
X46525000Y-57362500D03*
X46525000Y-56962500D03*
X46525000Y-56562500D03*
X46525000Y-56162500D03*
X46525000Y-55762500D03*
G04 #@! TD*
D48*
G04 #@! TO.C,U6*
X87112500Y-48726000D03*
X87112500Y-49876000D03*
X87112500Y-51026000D03*
X88137500Y-51401000D03*
X89162500Y-51026000D03*
X89162500Y-49876000D03*
X89162500Y-48726000D03*
X88137500Y-48351000D03*
G04 #@! TD*
D49*
G04 #@! TO.C,D3*
X55460000Y-39400000D03*
X58540000Y-39400000D03*
G04 #@! TD*
D50*
G04 #@! TO.C,D2*
X34500000Y-32500000D03*
X31420000Y-32500000D03*
G04 #@! TD*
D25*
G04 #@! TO.C,C4*
X70550000Y-34500000D03*
X72450000Y-34500000D03*
G04 #@! TD*
D31*
G04 #@! TO.C,R4*
X61800000Y-36800000D03*
X60150000Y-36800000D03*
G04 #@! TD*
D17*
G04 #@! TO.C,SW1*
X51300000Y-60000000D03*
X57900000Y-60000000D03*
G04 #@! TD*
D25*
G04 #@! TO.C,C8*
X92237500Y-53876000D03*
X94137500Y-53876000D03*
G04 #@! TD*
D49*
G04 #@! TO.C,D4*
X55460000Y-55600000D03*
X58540000Y-55600000D03*
G04 #@! TD*
D51*
G04 #@! TO.C,C2*
X64000000Y-32900000D03*
X64000000Y-31000000D03*
G04 #@! TD*
G04 #@! TO.C,C10*
X93637500Y-43326000D03*
X93637500Y-41426000D03*
G04 #@! TD*
D52*
G04 #@! TO.C,U1*
X67650000Y-31500000D03*
X67650000Y-32200000D03*
X68500000Y-31500000D03*
X68500000Y-32200000D03*
D53*
X66625000Y-31100000D03*
X66625000Y-31600000D03*
X66625000Y-32100000D03*
X66625000Y-32600000D03*
X69525000Y-32600000D03*
X69525000Y-32100000D03*
X69525000Y-31600000D03*
X69525000Y-31100000D03*
G04 #@! TD*
D54*
G04 #@! TO.C,U5*
X91937500Y-48476000D03*
X91937500Y-49276000D03*
X93337500Y-49276000D03*
X93337500Y-48476000D03*
G04 #@! TD*
D25*
G04 #@! TO.C,C3*
X70550000Y-36500000D03*
X72450000Y-36500000D03*
G04 #@! TD*
M02*
